HIERARCHY
ROOT hip
{
	OFFSET 0.000000 0.000000 0.000000 
	CHANNELS 6 Xposition Yposition Zposition Xrotation Zrotation Yrotation
	JOINT abdomen
	{
		OFFSET 0.000000 3.402643 0.000000 
		CHANNELS 3 Xrotation Zrotation Yrotation
		JOINT chest
		{
			OFFSET 0.000000 8.438565 -0.680529 
			CHANNELS 3 Xrotation Zrotation Yrotation
			JOINT neck
			{
				OFFSET 0.000000 10.207942 -0.272212 
				CHANNELS 3 Xrotation Zrotation Yrotation
				JOINT head
				{
					OFFSET 0.000000 3.130431 0.000000 
					CHANNELS 3 Xrotation Zrotation Yrotation
					End Site
					{
						OFFSET 0.000000 3.130435 0.000000 
					}
				}
			}
			JOINT lCollar
			{
				OFFSET 3.470700 6.669187 -0.816635 
				CHANNELS 3 Yrotation Zrotation Xrotation
				JOINT lShldr
				{
					OFFSET 3.198488 0.000000 0.000000 
					CHANNELS 3 Zrotation Yrotation Xrotation
					JOINT lForeArm
					{
						OFFSET 10.139888 0.000000 0.000000 
						CHANNELS 3 Yrotation Zrotation Xrotation
						JOINT lHand
						{
							OFFSET 8.370511 0.000000 0.000000 
							CHANNELS 3 Zrotation Yrotation Xrotation
							End Site
							{
								OFFSET 4.083176 0.000000 0.000000 
							}
						}
					}
				}
			}
			JOINT rCollar
			{
				OFFSET -3.470700 6.669187 -0.816635 
				CHANNELS 3 Yrotation Zrotation Xrotation
				JOINT rShldr
				{
					OFFSET -3.198488 0.000000 0.000000 
					CHANNELS 3 Zrotation Yrotation Xrotation
					JOINT rForeArm
					{
						OFFSET -10.139888 0.000000 0.000000 
						CHANNELS 3 Yrotation Zrotation Xrotation
						JOINT rHand
						{
							OFFSET -8.370511 0.000000 0.000000 
							CHANNELS 3 Zrotation Yrotation Xrotation
							End Site
							{
								OFFSET -4.083176 0.000000 0.000000 
							}
						}
					}
				}
			}
		}
	}
	JOINT lThigh
	{
		OFFSET 5.308129 -1.633274 1.361059 
		CHANNELS 3 Xrotation Zrotation Yrotation
		JOINT lShin
		{
			OFFSET -2.041588 -20.007561 0.000000 
			CHANNELS 3 Xrotation Zrotation Yrotation
			JOINT lFoot
			{
				OFFSET 0.000000 -19.190928 -1.224953 
				CHANNELS 3 Xrotation Yrotation Zrotation
				End Site
				{
					OFFSET 0.000000 -2.449906 4.627600 
				}
			}
		}
	}
	JOINT rThigh
	{
		OFFSET -5.308129 -1.633274 1.361059 
		CHANNELS 3 Xrotation Zrotation Yrotation
		JOINT rShin
		{
			OFFSET 2.041588 -20.007561 0.000000 
			CHANNELS 3 Xrotation Zrotation Yrotation
			JOINT rFoot
			{
				OFFSET 0.000000 -19.190928 -1.224953 
				CHANNELS 3 Xrotation Yrotation Zrotation
				End Site
				{
					OFFSET 0.000000 -2.449906 4.627600 
				}
			}
		}
	}
}
MOTION
Frames: 13
Frame Time: 0.033333
2.868737 49.505661 -3.897674 -3.291562 1.043198 4.080642 0.000000 0.000000 0.000000 11.513790 -0.258366 2.027405 8.048458 -0.320722 2.670426 10.674846 -1.795702 -2.828882 0.067311 6.744238 14.689828 46.349163 -71.252121 -73.318398 -27.302015 -10.636315 3.224769 -3.672390 -0.665768 20.197672 11.218904 -2.711816 14.771850 -36.145233 62.846504 -66.007538 12.200169 10.949247 3.094573 -3.055986 0.757424 29.473875 -3.327856 7.161293 6.704197 15.689802 -6.057305 12.522232 -7.606967 0.014883 -0.228920 1.336398 -13.287093 -8.281971 9.261460 5.323939 -15.257207 -2.477249 -0.180453 7.876439 
2.741006 49.537754 -3.883467 -3.203862 1.228546 3.935158 0.000000 0.000000 0.000000 11.533304 -0.239211 1.943334 8.156348 -0.149343 2.655611 10.714128 -1.961560 -2.728819 0.055012 6.892995 14.760014 45.038052 -71.442528 -72.185188 -27.067764 -10.679825 3.216248 -3.659950 -0.713982 20.646135 11.278816 -2.514613 14.823005 -36.287861 62.943226 -66.730721 11.610723 11.060819 3.093200 -2.084949 0.387237 30.105335 -3.270738 7.106496 6.770813 15.415211 -6.105260 13.087493 -7.402334 0.012184 -0.047992 1.141100 -13.245549 -8.160140 9.431110 5.240106 -15.609571 -2.551834 -0.187832 7.770004 
2.604468 49.543541 -3.883240 -3.135631 1.345639 3.744670 0.000000 0.000000 0.000000 11.552761 -0.124381 1.761663 8.258082 -0.303000 2.662931 10.713928 -1.795657 -2.625027 0.213916 6.511289 14.745479 44.542732 -71.362694 -71.180824 -26.823479 -10.921265 3.230959 -3.594495 -0.485397 20.836628 11.414811 -3.082735 14.952614 -35.983006 63.316353 -67.302750 10.977062 11.088166 3.093602 -1.481075 -0.221458 30.480556 -3.288344 7.023810 6.531613 15.443604 -5.948078 13.269457 -7.421704 0.012037 -0.144432 1.150525 -13.234063 -8.179525 9.226872 5.280295 -15.468490 -2.703080 -0.194490 7.549791 
2.447919 49.549835 -3.874897 -3.028180 1.345775 3.639771 0.000000 0.000000 0.000000 11.533207 0.047842 1.777349 8.220345 -0.095802 2.650518 10.977779 -1.834363 -2.605615 0.010309 6.994906 14.746079 43.078503 -71.514687 -69.871956 -27.060614 -10.903188 3.233788 -3.843772 -0.215563 20.226851 11.272495 -2.754565 14.853244 -35.874226 63.352936 -67.362526 10.564150 11.168829 3.097345 -1.029444 -0.262474 30.810047 -3.388575 7.216129 6.618422 15.346530 -5.899835 13.557199 -7.216207 0.033182 -0.284578 1.170200 -12.953317 -7.970433 8.855499 5.211226 -15.914433 -2.762626 -0.175131 7.369423 
2.301687 49.574623 -3.872204 -3.164874 1.296848 3.502536 0.000000 0.000000 0.000000 11.650593 0.334755 1.797595 8.231590 0.031912 2.469318 11.329537 -1.843616 -2.763817 -0.050801 7.179420 14.930420 42.979862 -71.649704 -69.873672 -26.848240 -10.969645 3.239913 -3.843199 -0.049263 20.167667 11.256606 -2.291221 14.984209 -35.968826 63.082848 -67.467003 10.200266 11.237249 3.093240 -1.391739 -0.245359 30.612726 -3.242448 7.363011 6.622132 15.358542 -5.753319 13.739822 -7.147682 0.024491 -0.299161 0.829958 -12.773202 -7.752813 9.898247 5.248487 -14.759426 -3.214190 -0.216290 7.236296 
2.152943 49.585567 -3.892527 -3.096533 1.326187 3.473204 0.000000 0.000000 0.000000 11.660620 0.506897 1.803910 8.325521 0.337128 2.323314 11.241939 -2.058364 -2.800201 -0.142668 7.697671 15.033598 42.309288 -71.994843 -69.626732 -26.793056 -10.916039 3.230338 -3.492315 -0.215640 20.506886 11.004265 -1.677582 14.975759 -35.987286 62.827194 -67.425903 10.133076 11.288574 3.097600 -1.428058 -0.130168 31.196960 -3.280079 7.447110 6.577355 15.474268 -5.675606 13.767803 -7.254968 0.014079 -0.303968 0.487486 -12.653557 -7.679429 10.377446 5.268530 -14.882473 -3.395966 -0.224581 7.110241 
1.992619 49.576511 -3.904521 -3.135644 1.355390 3.353511 0.000000 0.000000 0.000000 11.729400 0.698006 1.805184 8.323926 0.491561 2.291751 11.134447 -2.058538 -2.727982 -0.313825 8.062631 15.117144 42.477146 -72.007507 -69.928787 -26.664217 -10.921865 3.226841 -3.764812 -0.054709 20.289564 10.758345 -1.437988 14.989214 -36.223515 62.670464 -67.540039 10.003110 11.267189 3.094708 -1.362924 -0.077279 31.005716 -3.358233 7.652072 6.644243 15.468859 -5.652531 13.390378 -7.078872 0.047825 -0.406219 0.321868 -12.518567 -7.622989 10.647480 5.304260 -14.826634 -3.666720 -0.227950 6.913955 
1.830530 49.590607 -3.932218 -3.155245 1.404119 3.145285 0.000000 0.000000 0.000000 11.749217 0.803128 1.807779 8.391166 0.633738 2.230273 11.427656 -2.087308 -2.739951 -0.507757 8.310066 15.204766 42.222485 -71.992493 -69.695625 -26.628101 -10.959841 3.236555 -3.462574 -0.223766 19.733513 10.597491 -1.185995 15.004730 -36.038368 62.614719 -67.531746 9.979913 11.192097 3.092142 -1.476875 0.189718 31.019451 -3.201240 7.806437 6.787610 15.150181 -5.632119 13.957941 -6.725881 0.034563 -0.529328 0.282109 -12.259966 -7.395648 10.427606 5.172570 -15.412305 -3.596505 -0.211813 6.750122 
1.677504 49.585693 -3.964875 -3.331066 1.394126 2.916936 0.000000 0.000000 0.000000 11.906404 1.070225 1.651567 8.435499 0.397733 2.169495 11.466605 -2.009210 -2.766760 -0.305144 8.027716 15.293509 42.558205 -71.962303 -69.986687 -26.622917 -10.908786 3.231966 -3.290038 -0.341295 20.259884 10.539903 -1.674304 15.215626 -36.438389 62.601437 -67.654762 9.882163 11.226003 3.094805 -1.706266 0.107204 30.585663 -2.861207 7.898626 6.545953 15.063638 -5.479765 14.023049 -6.769580 0.060629 -0.913018 0.067960 -12.137581 -7.378569 10.964716 5.240646 -15.263262 -3.799906 -0.211440 6.553603 
1.509004 49.608982 -3.988281 -3.399652 1.530506 2.731389 0.000000 0.000000 0.000000 11.896791 1.108486 1.600847 8.666492 0.484856 2.112958 11.408078 -2.067835 -2.767579 -0.480459 8.228035 15.314139 41.661716 -72.102020 -69.357666 -26.822989 -10.818342 3.222335 -3.363130 -0.081293 20.361404 10.373174 -1.161548 15.154764 -36.294384 62.564682 -67.529144 9.951035 11.212703 3.094257 -1.658802 0.129679 31.320976 -2.616597 7.985311 6.727013 14.582981 -5.556355 14.670517 -6.320050 0.052254 -0.894244 0.243229 -11.998312 -7.346079 10.526471 5.261465 -15.757677 -3.728560 -0.221156 6.252154 
1.360131 49.608982 -4.004403 -3.526731 1.579037 2.441794 0.000000 0.000000 0.000000 11.927033 1.318573 1.577469 8.632428 0.594023 2.027672 11.652629 -2.194158 -2.724559 -0.739969 8.591578 15.363257 40.651646 -72.022095 -68.356934 -27.082554 -10.729101 3.226711 -3.332304 -0.108915 19.920071 10.238256 -1.087602 15.151367 -36.419388 62.537056 -67.390686 10.139185 11.202546 3.089766 -1.436597 -0.150257 30.717871 -2.352574 8.061962 6.553876 14.294697 -5.498024 15.122501 -6.078991 0.057010 -1.168673 0.009327 -11.921294 -7.223297 11.018656 5.187544 -15.369699 -3.903612 -0.224935 6.158708 
1.178035 49.641068 -4.029243 -3.585398 1.608176 2.233271 0.000000 0.000000 0.000000 11.908333 1.481111 1.513626 8.701932 0.622941 1.876212 11.613759 -2.301511 -2.699417 -0.828245 8.450705 15.307393 40.516525 -72.030022 -68.006195 -27.181692 -10.821245 3.228109 -3.489674 0.087709 20.222473 10.137523 -1.105678 15.118987 -36.154179 62.560059 -67.002327 10.225993 11.149755 3.091934 -1.230514 -0.167058 30.251553 -1.854471 8.185596 6.374277 13.628930 -5.421485 14.439095 -5.862225 0.079795 -1.264436 -0.322460 -11.825334 -7.214629 11.527545 5.266887 -15.329009 -3.864827 -0.208253 5.942852 
0.976435 49.647739 -4.058703 -3.653785 1.608055 2.182524 0.000000 0.000000 0.000000 11.860892 1.720305 1.484417 8.665318 0.555947 1.737952 11.730476 -2.028228 -2.845430 -0.943846 8.452161 15.213266 40.266132 -72.223305 -67.725601 -27.248526 -10.890536 3.237041 -3.381020 0.064421 20.244858 9.925611 -0.740613 14.994606 -36.171932 62.522392 -67.060341 10.154996 11.115486 3.091936 -1.176286 -0.095278 30.811693 -2.089129 8.442574 6.405706 13.901999 -5.508963 14.999973 -5.700610 0.055789 -1.050802 -0.176075 -11.581175 -7.193888 11.286869 5.338563 -15.461067 -3.940653 -0.196001 5.642534 
